<?xml version="1.0" encoding="utf-8"?>
<!-- Generator: Adobe Illustrator 23.0.2, SVG Export Plug-In . SVG Version: 6.00 Build 0)  -->
<svg version="1.1" id="Layer_1" xmlns="http://www.w3.org/2000/svg" xmlns:xlink="http://www.w3.org/1999/xlink" x="0px" y="0px"
	 viewBox="0 0 552 512" style="enable-background:new 0 0 552 512;" xml:space="preserve">
<path d="M329.2,43.7c-11.4-2.9-23,4.1-25.9,15.5l-96,384c-2.9,11.4,4.1,23,15.5,25.9c1.7,0.4,3.5,0.6,5.2,0.6
	c9.6,0,18.2-6.5,20.7-16.2l96-384C347.6,58.1,340.6,46.5,329.2,43.7z"/>
<path d="M164.4,113.3c-8.3-8.3-21.8-8.3-30.2,0l-128,128c-8.3,8.3-8.3,21.8,0,30.2l128,128c4.2,4.2,9.6,6.2,15.1,6.2
	c5.5,0,10.9-2.1,15.1-6.2c8.3-8.3,8.3-21.8,0-30.2L51.5,256.4l112.9-112.9C172.8,135.1,172.8,121.6,164.4,113.3z"/>
<path d="M545.7,241.3l-128-128c-8.3-8.3-21.8-8.3-30.2,0c-8.3,8.3-8.3,21.8,0,30.2l112.9,112.9L387.6,369.3
	c-8.3,8.3-8.3,21.8,0,30.2c4.2,4.2,9.6,6.2,15.1,6.2s10.9-2.1,15.1-6.2l128-128C554.1,263.1,554.1,249.6,545.7,241.3z"/>
</svg>
