<?xml version="1.0" encoding="utf-8"?>
<!-- Generator: Adobe Illustrator 23.0.2, SVG Export Plug-In . SVG Version: 6.00 Build 0)  -->
<svg version="1.1" xmlns="http://www.w3.org/2000/svg" xmlns:xlink="http://www.w3.org/1999/xlink" x="0px" y="0px"
	 viewBox="0 0 463 399.1" style="enable-background:new 0 0 463 399.1;" xml:space="preserve">
<g id="Layer_1">
	<path d="M442,67.7l-49-49c-23.7-23.7-62-25-87.2-3L105.5,189.6c-4.5,3.9-7.1,9.4-7.3,15.3c-0.1,3.8,1.1,7.4,2.9,10.7l-33.3,57.8
		c-4.8,8.3-3.4,18.9,3.4,25.7l7.5,7.5l-56.1,56.2c-6.1,6.1-7.9,15.2-4.6,23.2c3.3,8,11.1,13.1,19.7,13.1h85.2c5,0,9.8-1.7,13.6-4.9
		l16.3-13.6l8.8,8.8c4.1,4.1,9.6,6.2,15.1,6.2c3.6,0,7.3-0.9,10.6-2.8l57.8-33.2c3.1,1.7,6.4,2.9,10,2.9h0.7
		c5.9-0.2,11.5-2.9,15.3-7.3l173.8-200.2C466.9,129.7,465.7,91.4,442,67.7z M180.1,347.8l-56.2-56.2c0,0,0-0.1-0.1-0.1
		c0,0-0.1,0-0.1-0.1l-10.9-10.9l18.8-32.6l81.1,81.1L180.1,347.8z"/>
</g>
<g id="Layer_2">
</g>
</svg>
