<?xml version="1.0" encoding="utf-8"?>
<!-- Generator: Adobe Illustrator 23.0.2, SVG Export Plug-In . SVG Version: 6.00 Build 0)  -->
<svg version="1.1" id="Layer_1" xmlns="http://www.w3.org/2000/svg" xmlns:xlink="http://www.w3.org/1999/xlink" x="0px" y="0px"
	 viewBox="0 0 354.1 337.6" style="enable-background:new 0 0 354.1 337.6;" xml:space="preserve">
<path d="M78.4,220.4l73.9,59.3l-36.6,45.9c-3,3.8-7.8,5.6-12.5,4.8c-13.5-2.3-66.1,1.7-86.2-1.8c-9.9-1.7-14.4-13.4-8.1-21.3
	L78.4,220.4z"/>
<path d="M112.2,53.1C146.9,10.1,150.8,7,150.8,7L345,162.7c0,0-1.9,4.5-36.1,47.6c-13.3,16.8-34,26-55.3,24.7
	c-21.9-1.4-48.1-1.6-56.8,3.8c-12.6,7.9-23.7,18.4-29.6,24.3l-75.3-60.4c4.5-7,12.2-20,17.1-34c3.4-9.7-2.6-35-8.8-56
	C94.1,92,98.7,69.8,112.2,53.1z"/>
</svg>
